<svg aria-hidden="true" style="position: absolute; width: 0; height: 0; overflow: hidden;" version="1.1"
  xmlns="http://www.w3.org/2000/svg"
  xmlns:xlink="http://www.w3.org/1999/xlink">
  <defs>
    <symbol id="icon-edit" viewBox="0 0 32 32">
      <path d="M7.273 17.455v5.818c0 0.803 0.651 1.455 1.455 1.455h5.818c0.386 0 0.756-0.153 1.028-0.426l16-16c0.568-0.568 0.568-1.489 0-2.057l-5.818-5.818c-0.273-0.273-0.643-0.426-1.028-0.426s-0.756 0.153-1.028 0.426l-16 16c-0.273 0.273-0.426 0.643-0.426 1.028zM10.182 18.057l14.545-14.545 3.761 3.761-14.545 14.545h-3.761v-3.761z"></path>
      <path d="M30.545 14.546c-0.803 0-1.455 0.651-1.455 1.455v13.091h-26.182v-26.182h13.091c0.803 0 1.455-0.651 1.455-1.455s-0.651-1.455-1.455-1.455h-14.545c-0.803 0-1.455 0.651-1.455 1.455v29.091c0 0.803 0.651 1.455 1.455 1.455h29.091c0.803 0 1.455-0.651 1.455-1.455v-14.545c0-0.803-0.651-1.455-1.455-1.455z"></path>
    </symbol>

    <symbol id="icon-delete" viewBox="0 0 32 32">
      <path d="M21.939 14.546v-5.887h1.353v-6.089h-6.656v-2.571h-7.661v2.571h-6.656v6.089h1.353v20.634h10.928c1.595 1.667 3.84 2.706 6.324 2.706 4.828 0 8.756-3.928 8.756-8.756 0-4.485-3.39-8.193-7.742-8.697zM19.909 14.546c-1.221 0.142-2.367 0.535-3.383 1.128v-7.015h3.383v5.887zM11.005 2.030h3.601v0.541h-3.601v-0.541zM4.349 4.6h16.913v2.030h-16.913v-2.030zM5.702 8.66h3.383v18.605h-3.383v-18.605zM11.114 27.264v-18.605h3.383v8.644c-1.445 1.562-2.329 3.65-2.329 5.94 0 1.449 0.354 2.816 0.979 4.021h-2.033zM20.924 29.97c-3.709 0-6.727-3.018-6.727-6.727s3.018-6.727 6.727-6.727 6.727 3.018 6.727 6.727-3.018 6.727-6.727 6.727z"></path>
      <path d="M23.154 19.579l-2.23 2.23-2.23-2.23-1.435 1.435 2.23 2.23-2.23 2.23 1.435 1.435 2.23-2.23 2.23 2.23 1.435-1.435-2.23-2.23 2.23-2.23z"></path>
    </symbol>

    <symbol id="icon-github" viewBox="0 0 32 32">
      <path d="M16 0.396c-8.839 0-16 7.167-16 16 0 7.073 4.584 13.068 10.937 15.183 0.803 0.151 1.093-0.344 1.093-0.772 0-0.38-0.009-1.385-0.015-2.719-4.453 0.964-5.391-2.151-5.391-2.151-0.729-1.844-1.781-2.339-1.781-2.339-1.448-0.989 0.115-0.968 0.115-0.968 1.604 0.109 2.448 1.645 2.448 1.645 1.427 2.448 3.744 1.74 4.661 1.328 0.14-1.031 0.557-1.74 1.011-2.135-3.552-0.401-7.287-1.776-7.287-7.907 0-1.751 0.62-3.177 1.645-4.297-0.177-0.401-0.719-2.031 0.141-4.235 0 0 1.339-0.427 4.4 1.641 1.281-0.355 2.641-0.532 4-0.541 1.36 0.009 2.719 0.187 4 0.541 3.043-2.068 4.381-1.641 4.381-1.641 0.859 2.204 0.317 3.833 0.161 4.235 1.015 1.12 1.635 2.547 1.635 4.297 0 6.145-3.74 7.5-7.296 7.891 0.556 0.479 1.077 1.464 1.077 2.959 0 2.14-0.020 3.864-0.020 4.385 0 0.416 0.28 0.916 1.104 0.755 6.4-2.093 10.979-8.093 10.979-15.156 0-8.833-7.161-16-16-16z"></path>
    </symbol>

    <symbol id="icon-telegram" viewBox="0 0 32 32">
      <path d="M27.553 4.956l-23.64 9.116c-1.613 0.648-1.604 1.548-0.296 1.949l6.069 1.893 14.043-8.86c0.664-0.404 1.271-0.187 0.772 0.256l-11.377 10.269-0.419 6.256c0.613 0 0.884-0.281 1.228-0.613l2.948-2.867 6.132 4.529c1.131 0.623 1.943 0.303 2.224-1.047l4.025-18.971c0.412-1.652-0.631-2.4-1.709-1.912z"></path>
    </symbol>
  </defs>
</svg>
